<?xml version="1.0" encoding="UTF-8" standalone="no"?>
<svg
   xmlns:dc="http://purl.org/dc/elements/1.1/"
   xmlns:cc="http://creativecommons.org/ns#"
   xmlns:rdf="http://www.w3.org/1999/02/22-rdf-syntax-ns#"
   xmlns:svg="http://www.w3.org/2000/svg"
   xmlns="http://www.w3.org/2000/svg"
   xmlns:sodipodi="http://sodipodi.sourceforge.net/DTD/sodipodi-0.dtd"
   xmlns:inkscape="http://www.inkscape.org/namespaces/inkscape"
   width="2400mm"
   height="1500mm"
   viewBox="0 0 2400 1500"
   version="1.1"
   id="svg8"
   inkscape:version="1.0.1 (3bc2e813f5, 2020-09-07)"
   sodipodi:docname="logo-white-on-black.svg">
  <defs
     id="defs2" />
  <sodipodi:namedview
     id="base"
     pagecolor="#000000"
     bordercolor="#666666"
     borderopacity="1.0"
     inkscape:pageopacity="0"
     inkscape:pageshadow="2"
     inkscape:zoom="0.061871843"
     inkscape:cx="2296.0565"
     inkscape:cy="2598.6397"
     inkscape:document-units="mm"
     inkscape:current-layer="layer1"
     inkscape:document-rotation="0"
     showgrid="false"
     width="2400mm"
     inkscape:window-width="3165"
     inkscape:window-height="1317"
     inkscape:window-x="4379"
     inkscape:window-y="54"
     inkscape:window-maximized="0" />
  <metadata
     id="metadata5">
    <rdf:RDF>
      <cc:Work
         rdf:about="">
        <dc:format>image/svg+xml</dc:format>
        <dc:type
           rdf:resource="http://purl.org/dc/dcmitype/StillImage" />
        <dc:title></dc:title>
      </cc:Work>
    </rdf:RDF>
  </metadata>
  <g
     inkscape:groupmode="layer"
     id="layer2"
     inkscape:label="Layer 2">
    <rect
       style="fill:#000000;fill-opacity:1;stroke:#ffffff;stroke-width:0.264583;stroke-opacity:1"
       id="rect956"
       width="2605.7234"
       height="1646.3615"
       x="-79.109688"
       y="-52.617119" />
    <rect
       style="fill:#000000;fill-opacity:1;stroke:#ffffff;stroke-width:0.264583;stroke-opacity:1"
       id="rect976"
       width="4.2241111"
       height="24.358328"
       x="4201.7568"
       y="464.04645" />
  </g>
  <g
     inkscape:label="Layer 1"
     inkscape:groupmode="layer"
     id="layer1">
    <path
       d="m 1790.0255,390.17544 a 337.11192,337.11192 0 0 0 -220.1407,82.02942 v -82.00642 h -130.8652 v 674.16636 h 130.8652 V 721.70912 a 220.41668,220.41668 0 0 1 220.1407,-214.8499 220.41668,220.41668 0 0 1 181.5642,95.87729 V 443.28983 A 337.11192,337.11192 0 0 0 1790.014,390.17544 Z"
       stroke="#000000"
       stroke-width="6.48067"
       id="path18" />
    <path
       d="m 1694.4932,727.2643 a 90.74763,90.74763 0 0 0 90.7591,90.75917 90.74763,90.74763 0 0 0 90.7592,-90.74767 90.74763,90.74763 0 0 0 -90.7477,-90.77056 90.74763,90.74763 0 0 0 -90.7706,90.75906 z"
       fill="#ff0000"
       stroke="#ff0000"
       stroke-width="12.9677"
       id="path20" />
    <path
       d="m 1603.5155,710.90907 h 523.2883 v 434.30043 h -523.2883 z"
       fill="none"
       id="path22"
       style="stroke-width:11.5016" />
    <path
       d="m 1780.4906,1064.3648 a 337.11192,337.11192 0 0 0 220.1407,-82.04095 v 82.01795 h 130.8652 V 390.17544 H 2000.6198 V 732.8311 A 220.41668,220.41668 0 0 1 1780.4791,947.681 220.41668,220.41668 0 0 1 1598.9034,851.7922 v 159.4582 a 337.11192,337.11192 0 0 0 181.5757,53.1144 z"
       stroke="#000000"
       stroke-width="6.48067"
       id="path24" />
    <g
       font-weight="400"
       font-size="35.983px"
       font-family="Comfortaa"
       letter-spacing="-2.646"
       word-spacing="0"
       stroke-width="0.265"
       id="g34"
       transform="matrix(11.501601,0,0,11.501601,194.40843,386.93197)">
      <g
         aria-label="Rogue"
         style="line-height:1.25;-inkscape-font-specification:Anurati"
         id="g28">
        <path
           d="m 1.403,28.103 q -0.611,0 -1.007,-0.396 Q 0,27.311 0,26.7 V 1.403 Q 0,0.792 0.396,0.396 0.792,0 1.403,0 h 6.73 q 2.626,0 4.677,1.115 2.051,1.08 3.203,3.06 1.187,1.941 1.187,4.496 0,2.447 -1.187,4.354 -1.152,1.907 -3.203,2.987 -2.051,1.08 -4.678,1.08 H 2.807 V 26.7 q 0,0.611 -0.396,1.007 -0.396,0.396 -1.008,0.396 z m 15.041,0 q -0.467,0 -0.755,-0.18 -0.252,-0.18 -0.468,-0.54 l -6.909,-11.01 2.807,-0.72 6.44,10.291 q 0.54,0.864 0.18,1.511 -0.323,0.648 -1.295,0.648 z M 2.807,14.393 h 5.325 q 1.835,0 3.239,-0.72 1.44,-0.755 2.267,-2.05 0.827,-1.296 0.827,-2.951 0,-1.763 -0.827,-3.095 Q 12.81,4.21 11.371,3.454 9.967,2.7 8.132,2.7 H 2.807 Z m 25.356,13.89 q -2.879,0 -5.146,-1.295 -2.267,-1.296 -3.562,-3.563 -1.296,-2.267 -1.296,-5.145 0,-2.915 1.296,-5.182 1.295,-2.267 3.562,-3.562 2.267,-1.296 5.146,-1.296 2.878,0 5.11,1.296 2.266,1.295 3.562,3.562 1.295,2.267 1.331,5.182 0,2.878 -1.331,5.145 -1.296,2.267 -3.563,3.563 -2.23,1.295 -5.11,1.295 z m 0,-2.519 q 2.087,0 3.742,-0.971 1.655,-0.972 2.59,-2.663 0.936,-1.691 0.936,-3.85 0,-2.16 -0.935,-3.85 -0.936,-1.728 -2.591,-2.7 -1.655,-0.971 -3.742,-0.971 -2.087,0 -3.743,0.972 -1.655,0.971 -2.626,2.698 -0.936,1.692 -0.936,3.85 0,2.16 0.936,3.85 0.971,1.692 2.626,2.664 1.656,0.971 3.743,0.971 z m 21.453,2.519 q -2.843,0 -5.038,-1.26 -2.195,-1.295 -3.454,-3.562 -1.223,-2.267 -1.223,-5.181 0,-2.951 1.295,-5.218 1.295,-2.267 3.562,-3.526 2.267,-1.296 5.146,-1.296 2.915,0 5.146,1.296 2.267,1.259 3.526,3.526 1.295,2.267 1.331,5.218 l -1.619,0.863 q 0,2.663 -1.115,4.75 -1.116,2.051 -3.095,3.238 -1.943,1.152 -4.462,1.152 z m 0.36,7.592 q -2.843,0 -5.002,-1.08 -2.159,-1.043 -3.562,-2.878 -0.396,-0.432 -0.36,-0.935 0.072,-0.504 0.54,-0.828 0.468,-0.324 1.043,-0.216 0.576,0.108 0.9,0.54 1.043,1.295 2.663,2.087 1.655,0.792 3.814,0.792 2.015,0 3.634,-0.972 1.62,-0.972 2.555,-2.735 0.972,-1.763 0.972,-4.138 v -5.47 l 1.043,-2.086 1.691,0.324 v 7.34 q 0,2.915 -1.295,5.218 -1.295,2.339 -3.526,3.67 -2.231,1.367 -5.11,1.367 z m -0.072,-10.11 q 2.123,0 3.742,-0.936 1.655,-0.972 2.591,-2.663 0.936,-1.691 0.936,-3.886 0,-2.195 -0.936,-3.887 -0.936,-1.727 -2.59,-2.662 -1.62,-0.972 -3.743,-0.972 -2.123,0 -3.778,0.972 -1.656,0.935 -2.591,2.662 -0.936,1.692 -0.936,3.887 0,2.195 0.936,3.886 0.935,1.691 2.59,2.663 1.656,0.935 3.779,0.935 z m 21.346,2.554 q -2.555,0 -4.57,-1.044 -2.016,-1.08 -3.203,-3.13 -1.151,-2.051 -1.151,-5.002 V 9.787 q 0,-0.575 0.395,-0.971 0.396,-0.396 0.972,-0.396 0.612,0 1.007,0.396 0.396,0.396 0.396,0.971 v 9.356 q 0,2.231 0.828,3.67 0.864,1.44 2.303,2.16 1.475,0.72 3.31,0.72 1.763,0 3.167,-0.685 1.44,-0.683 2.267,-1.87 0.827,-1.188 0.827,-2.7 h 1.98 q -0.108,2.267 -1.26,4.067 -1.115,1.763 -3.023,2.806 -1.907,1.008 -4.246,1.008 z m 7.916,-0.216 q -0.612,0 -1.008,-0.36 -0.36,-0.396 -0.36,-1.043 V 9.787 q 0,-0.611 0.36,-0.971 0.396,-0.396 1.008,-0.396 0.612,0 1.007,0.396 0.396,0.36 0.396,0.971 V 26.7 q 0,0.647 -0.396,1.043 -0.396,0.36 -1.007,0.36 z m 14.184,0.18 q -2.914,0 -5.181,-1.26 -2.231,-1.295 -3.526,-3.562 -1.26,-2.267 -1.26,-5.181 0,-2.951 1.188,-5.182 1.223,-2.267 3.346,-3.562 2.123,-1.296 4.894,-1.296 2.735,0 4.75,1.26 2.05,1.223 3.166,3.418 1.116,2.195 1.116,5.002 0,0.575 -0.36,0.935 -0.36,0.324 -0.936,0.324 H 85.254 v -2.303 h 15.581 l -1.547,1.116 q 0.036,-2.087 -0.756,-3.743 -0.791,-1.655 -2.267,-2.59 -1.44,-0.936 -3.454,-0.936 -2.051,0 -3.598,0.972 -1.548,0.971 -2.411,2.698 -0.828,1.692 -0.828,3.887 0,2.195 0.936,3.886 0.971,1.691 2.626,2.663 1.656,0.971 3.815,0.971 1.295,0 2.59,-0.432 1.332,-0.468 2.123,-1.151 0.396,-0.324 0.9,-0.324 0.504,-0.036 0.864,0.252 0.467,0.432 0.467,0.935 0.036,0.504 -0.395,0.864 -1.188,1.008 -3.023,1.691 -1.835,0.648 -3.526,0.648 z"
           style="-inkscape-font-specification:Comfortaa"
           id="path26" />
      </g>
      <g
         aria-label="Rope"
         style="line-height:1.25;-inkscape-font-specification:Anurati"
         id="g32">
        <path
           d="m 22.09,58.495 q -0.611,0 -1.007,-0.396 -0.396,-0.396 -0.396,-1.008 V 31.795 q 0,-0.612 0.396,-1.007 0.396,-0.396 1.007,-0.396 h 6.73 q 2.626,0 4.677,1.115 2.051,1.08 3.203,3.059 1.187,1.943 1.187,4.498 0,2.447 -1.187,4.354 -1.152,1.907 -3.203,2.986 -2.05,1.08 -4.678,1.08 h -5.325 v 9.607 q 0,0.612 -0.396,1.008 -0.396,0.396 -1.008,0.396 z m 15.041,0 q -0.467,0 -0.755,-0.18 -0.252,-0.18 -0.468,-0.54 L 29,46.765 l 2.807,-0.72 6.441,10.29 q 0.54,0.864 0.18,1.512 -0.324,0.648 -1.296,0.648 z M 23.494,44.785 h 5.325 q 1.835,0 3.239,-0.72 1.44,-0.755 2.267,-2.05 0.827,-1.296 0.827,-2.951 0,-1.764 -0.827,-3.095 -0.828,-1.367 -2.267,-2.123 -1.404,-0.756 -3.239,-0.756 h -5.325 z m 25.356,13.89 q -2.879,0 -5.146,-1.296 -2.267,-1.295 -3.562,-3.562 -1.296,-2.267 -1.296,-5.146 0,-2.914 1.296,-5.181 1.295,-2.267 3.562,-3.563 2.267,-1.295 5.146,-1.295 2.878,0 5.11,1.295 2.266,1.296 3.562,3.563 1.295,2.267 1.331,5.181 0,2.879 -1.331,5.146 -1.296,2.267 -3.563,3.562 -2.23,1.296 -5.11,1.296 z m 0,-2.52 q 2.087,0 3.742,-0.97 1.655,-0.972 2.59,-2.664 0.936,-1.69 0.936,-3.85 0,-2.159 -0.935,-3.85 -0.936,-1.727 -2.591,-2.699 -1.655,-0.971 -3.742,-0.971 -2.087,0 -3.743,0.971 -1.655,0.972 -2.626,2.699 -0.936,1.691 -0.936,3.85 0,2.16 0.936,3.85 0.971,1.692 2.626,2.663 1.656,0.972 3.743,0.972 z m 14.185,10.76 q -0.648,0 -1.044,-0.396 -0.36,-0.36 -0.36,-1.008 V 48.527 q 0.036,-2.806 1.332,-5.037 1.331,-2.267 3.562,-3.563 2.267,-1.295 5.074,-1.295 2.878,0 5.145,1.331 2.267,1.296 3.563,3.563 1.331,2.267 1.331,5.145 0,2.843 -1.295,5.11 -1.26,2.267 -3.455,3.598 -2.195,1.296 -4.966,1.296 -2.41,0 -4.39,-1.008 -1.943,-1.043 -3.13,-2.735 v 10.58 q 0,0.647 -0.396,1.007 -0.36,0.396 -0.971,0.396 z m 8.564,-10.76 q 2.087,0 3.742,-0.97 1.655,-0.972 2.59,-2.664 0.972,-1.727 0.972,-3.85 0,-2.159 -0.971,-3.85 -0.936,-1.691 -2.591,-2.663 -1.655,-1.007 -3.742,-1.007 -2.051,0 -3.707,1.007 -1.655,0.972 -2.59,2.663 -0.936,1.691 -0.936,3.85 0,2.123 0.936,3.85 0.935,1.692 2.59,2.663 1.656,0.972 3.707,0.972 z m 21.751,2.52 q -2.914,0 -5.181,-1.26 -2.231,-1.295 -3.526,-3.562 -1.26,-2.267 -1.26,-5.182 0,-2.95 1.188,-5.181 1.223,-2.267 3.346,-3.563 2.123,-1.295 4.894,-1.295 2.735,0 4.75,1.26 2.05,1.223 3.166,3.418 1.116,2.195 1.116,5.001 0,0.576 -0.36,0.936 -0.36,0.324 -0.936,0.324 H 85.254 v -2.303 h 15.581 l -1.547,1.115 q 0.036,-2.087 -0.756,-3.742 -0.791,-1.655 -2.267,-2.59 -1.44,-0.936 -3.454,-0.936 -2.051,0 -3.598,0.971 -1.548,0.972 -2.411,2.699 -0.828,1.691 -0.828,3.886 0,2.195 0.936,3.886 0.971,1.692 2.626,2.663 1.656,0.972 3.815,0.972 1.295,0 2.59,-0.432 1.332,-0.468 2.123,-1.152 0.396,-0.323 0.9,-0.323 0.504,-0.036 0.864,0.252 0.467,0.431 0.467,0.935 0.036,0.504 -0.395,0.864 -1.188,1.007 -3.023,1.69 -1.835,0.649 -3.526,0.649 z"
           style="-inkscape-font-specification:Comfortaa"
           id="path30" />
      </g>
    </g>
    <path
       d="m 1790.0255,390.17544 a 337.11192,337.11192 0 0 0 -220.1407,82.02942 v -82.00642 h -130.8652 v 674.16636 h 130.8652 V 721.70912 a 220.41668,220.41668 0 0 1 220.1407,-214.8499 220.41668,220.41668 0 0 1 181.5642,95.87729 V 443.28983 A 337.11192,337.11192 0 0 0 1790.014,390.17544 Z"
       stroke="#000000"
       stroke-width="6.48067"
       id="path36"
       style="fill:#ffffff;fill-opacity:0.999917;stroke:#ffffff;stroke-opacity:1" />
    <path
       d="m 1694.4932,727.2643 a 90.74763,90.74763 0 0 0 90.7591,90.75917 90.74763,90.74763 0 0 0 90.7592,-90.74767 90.74763,90.74763 0 0 0 -90.7477,-90.77056 90.74763,90.74763 0 0 0 -90.7706,90.75906 z"
       fill="#ff0000"
       stroke="#ff0000"
       stroke-width="12.9677"
       id="path38" />
    <path
       d="m 1603.5155,710.90907 h 523.2883 v 434.30043 h -523.2883 z"
       fill="none"
       id="path40"
       style="stroke-width:11.5016" />
    <path
       d="m 1780.4906,1064.3648 a 337.11192,337.11192 0 0 0 220.1407,-82.04095 v 82.01795 h 130.8652 V 390.17544 H 2000.6198 V 732.8311 A 220.41668,220.41668 0 0 1 1780.4791,947.681 220.41668,220.41668 0 0 1 1598.9034,851.7922 v 159.4582 a 337.11192,337.11192 0 0 0 181.5757,53.1144 z"
       stroke="#000000"
       stroke-width="6.48067"
       id="path42"
       style="fill:#ffffff;fill-opacity:0.999917;stroke:#ffffff;stroke-opacity:1" />
    <g
       font-weight="400"
       font-size="35.983px"
       font-family="Comfortaa"
       letter-spacing="-2.646"
       word-spacing="0"
       stroke-width="0.265"
       id="g54"
       transform="matrix(11.501601,0,0,11.501601,194.40843,386.93197)"
       style="fill:#ffffff;fill-opacity:1;stroke:#ffffff;stroke-opacity:0.999995">
      <g
         aria-label="Rogue"
         style="line-height:1.25;-inkscape-font-specification:Anurati;fill:#ffffff;fill-opacity:1;stroke:#ffffff;stroke-opacity:0.999995"
         id="g48">
        <path
           d="m 1.403,28.103 q -0.611,0 -1.007,-0.396 Q 0,27.311 0,26.7 V 1.403 Q 0,0.792 0.396,0.396 0.792,0 1.403,0 h 6.73 q 2.626,0 4.677,1.115 2.051,1.08 3.203,3.06 1.187,1.941 1.187,4.496 0,2.447 -1.187,4.354 -1.152,1.907 -3.203,2.987 -2.051,1.08 -4.678,1.08 H 2.807 V 26.7 q 0,0.611 -0.396,1.007 -0.396,0.396 -1.008,0.396 z m 15.041,0 q -0.467,0 -0.755,-0.18 -0.252,-0.18 -0.468,-0.54 l -6.909,-11.01 2.807,-0.72 6.44,10.291 q 0.54,0.864 0.18,1.511 -0.323,0.648 -1.295,0.648 z M 2.807,14.393 h 5.325 q 1.835,0 3.239,-0.72 1.44,-0.755 2.267,-2.05 0.827,-1.296 0.827,-2.951 0,-1.763 -0.827,-3.095 Q 12.81,4.21 11.371,3.454 9.967,2.7 8.132,2.7 H 2.807 Z m 25.356,13.89 q -2.879,0 -5.146,-1.295 -2.267,-1.296 -3.562,-3.563 -1.296,-2.267 -1.296,-5.145 0,-2.915 1.296,-5.182 1.295,-2.267 3.562,-3.562 2.267,-1.296 5.146,-1.296 2.878,0 5.11,1.296 2.266,1.295 3.562,3.562 1.295,2.267 1.331,5.182 0,2.878 -1.331,5.145 -1.296,2.267 -3.563,3.563 -2.23,1.295 -5.11,1.295 z m 0,-2.519 q 2.087,0 3.742,-0.971 1.655,-0.972 2.59,-2.663 0.936,-1.691 0.936,-3.85 0,-2.16 -0.935,-3.85 -0.936,-1.728 -2.591,-2.7 -1.655,-0.971 -3.742,-0.971 -2.087,0 -3.743,0.972 -1.655,0.971 -2.626,2.698 -0.936,1.692 -0.936,3.85 0,2.16 0.936,3.85 0.971,1.692 2.626,2.664 1.656,0.971 3.743,0.971 z m 21.453,2.519 q -2.843,0 -5.038,-1.26 -2.195,-1.295 -3.454,-3.562 -1.223,-2.267 -1.223,-5.181 0,-2.951 1.295,-5.218 1.295,-2.267 3.562,-3.526 2.267,-1.296 5.146,-1.296 2.915,0 5.146,1.296 2.267,1.259 3.526,3.526 1.295,2.267 1.331,5.218 l -1.619,0.863 q 0,2.663 -1.115,4.75 -1.116,2.051 -3.095,3.238 -1.943,1.152 -4.462,1.152 z m 0.36,7.592 q -2.843,0 -5.002,-1.08 -2.159,-1.043 -3.562,-2.878 -0.396,-0.432 -0.36,-0.935 0.072,-0.504 0.54,-0.828 0.468,-0.324 1.043,-0.216 0.576,0.108 0.9,0.54 1.043,1.295 2.663,2.087 1.655,0.792 3.814,0.792 2.015,0 3.634,-0.972 1.62,-0.972 2.555,-2.735 0.972,-1.763 0.972,-4.138 v -5.47 l 1.043,-2.086 1.691,0.324 v 7.34 q 0,2.915 -1.295,5.218 -1.295,2.339 -3.526,3.67 -2.231,1.367 -5.11,1.367 z m -0.072,-10.11 q 2.123,0 3.742,-0.936 1.655,-0.972 2.591,-2.663 0.936,-1.691 0.936,-3.886 0,-2.195 -0.936,-3.887 -0.936,-1.727 -2.59,-2.662 -1.62,-0.972 -3.743,-0.972 -2.123,0 -3.778,0.972 -1.656,0.935 -2.591,2.662 -0.936,1.692 -0.936,3.887 0,2.195 0.936,3.886 0.935,1.691 2.59,2.663 1.656,0.935 3.779,0.935 z m 21.346,2.554 q -2.555,0 -4.57,-1.044 -2.016,-1.08 -3.203,-3.13 -1.151,-2.051 -1.151,-5.002 V 9.787 q 0,-0.575 0.395,-0.971 0.396,-0.396 0.972,-0.396 0.612,0 1.007,0.396 0.396,0.396 0.396,0.971 v 9.356 q 0,2.231 0.828,3.67 0.864,1.44 2.303,2.16 1.475,0.72 3.31,0.72 1.763,0 3.167,-0.685 1.44,-0.683 2.267,-1.87 0.827,-1.188 0.827,-2.7 h 1.98 q -0.108,2.267 -1.26,4.067 -1.115,1.763 -3.023,2.806 -1.907,1.008 -4.246,1.008 z m 7.916,-0.216 q -0.612,0 -1.008,-0.36 -0.36,-0.396 -0.36,-1.043 V 9.787 q 0,-0.611 0.36,-0.971 0.396,-0.396 1.008,-0.396 0.612,0 1.007,0.396 0.396,0.36 0.396,0.971 V 26.7 q 0,0.647 -0.396,1.043 -0.396,0.36 -1.007,0.36 z m 14.184,0.18 q -2.914,0 -5.181,-1.26 -2.231,-1.295 -3.526,-3.562 -1.26,-2.267 -1.26,-5.181 0,-2.951 1.188,-5.182 1.223,-2.267 3.346,-3.562 2.123,-1.296 4.894,-1.296 2.735,0 4.75,1.26 2.05,1.223 3.166,3.418 1.116,2.195 1.116,5.002 0,0.575 -0.36,0.935 -0.36,0.324 -0.936,0.324 H 85.254 v -2.303 h 15.581 l -1.547,1.116 q 0.036,-2.087 -0.756,-3.743 -0.791,-1.655 -2.267,-2.59 -1.44,-0.936 -3.454,-0.936 -2.051,0 -3.598,0.972 -1.548,0.971 -2.411,2.698 -0.828,1.692 -0.828,3.887 0,2.195 0.936,3.886 0.971,1.691 2.626,2.663 1.656,0.971 3.815,0.971 1.295,0 2.59,-0.432 1.332,-0.468 2.123,-1.151 0.396,-0.324 0.9,-0.324 0.504,-0.036 0.864,0.252 0.467,0.432 0.467,0.935 0.036,0.504 -0.395,0.864 -1.188,1.008 -3.023,1.691 -1.835,0.648 -3.526,0.648 z"
           style="-inkscape-font-specification:Comfortaa;fill:#ffffff;fill-opacity:1;stroke:#ffffff;stroke-opacity:0.999995"
           id="path46" />
      </g>
      <g
         aria-label="Rope"
         style="line-height:1.25;-inkscape-font-specification:Anurati;fill:#ffffff;fill-opacity:1;stroke:#ffffff;stroke-opacity:0.999995"
         id="g52">
        <path
           d="m 22.09,58.495 q -0.611,0 -1.007,-0.396 -0.396,-0.396 -0.396,-1.008 V 31.795 q 0,-0.612 0.396,-1.007 0.396,-0.396 1.007,-0.396 h 6.73 q 2.626,0 4.677,1.115 2.051,1.08 3.203,3.059 1.187,1.943 1.187,4.498 0,2.447 -1.187,4.354 -1.152,1.907 -3.203,2.986 -2.05,1.08 -4.678,1.08 h -5.325 v 9.607 q 0,0.612 -0.396,1.008 -0.396,0.396 -1.008,0.396 z m 15.041,0 q -0.467,0 -0.755,-0.18 -0.252,-0.18 -0.468,-0.54 L 29,46.765 l 2.807,-0.72 6.441,10.29 q 0.54,0.864 0.18,1.512 -0.324,0.648 -1.296,0.648 z M 23.494,44.785 h 5.325 q 1.835,0 3.239,-0.72 1.44,-0.755 2.267,-2.05 0.827,-1.296 0.827,-2.951 0,-1.764 -0.827,-3.095 -0.828,-1.367 -2.267,-2.123 -1.404,-0.756 -3.239,-0.756 h -5.325 z m 25.356,13.89 q -2.879,0 -5.146,-1.296 -2.267,-1.295 -3.562,-3.562 -1.296,-2.267 -1.296,-5.146 0,-2.914 1.296,-5.181 1.295,-2.267 3.562,-3.563 2.267,-1.295 5.146,-1.295 2.878,0 5.11,1.295 2.266,1.296 3.562,3.563 1.295,2.267 1.331,5.181 0,2.879 -1.331,5.146 -1.296,2.267 -3.563,3.562 -2.23,1.296 -5.11,1.296 z m 0,-2.52 q 2.087,0 3.742,-0.97 1.655,-0.972 2.59,-2.664 0.936,-1.69 0.936,-3.85 0,-2.159 -0.935,-3.85 -0.936,-1.727 -2.591,-2.699 -1.655,-0.971 -3.742,-0.971 -2.087,0 -3.743,0.971 -1.655,0.972 -2.626,2.699 -0.936,1.691 -0.936,3.85 0,2.16 0.936,3.85 0.971,1.692 2.626,2.663 1.656,0.972 3.743,0.972 z m 14.185,10.76 q -0.648,0 -1.044,-0.396 -0.36,-0.36 -0.36,-1.008 V 48.527 q 0.036,-2.806 1.332,-5.037 1.331,-2.267 3.562,-3.563 2.267,-1.295 5.074,-1.295 2.878,0 5.145,1.331 2.267,1.296 3.563,3.563 1.331,2.267 1.331,5.145 0,2.843 -1.295,5.11 -1.26,2.267 -3.455,3.598 -2.195,1.296 -4.966,1.296 -2.41,0 -4.39,-1.008 -1.943,-1.043 -3.13,-2.735 v 10.58 q 0,0.647 -0.396,1.007 -0.36,0.396 -0.971,0.396 z m 8.564,-10.76 q 2.087,0 3.742,-0.97 1.655,-0.972 2.59,-2.664 0.972,-1.727 0.972,-3.85 0,-2.159 -0.971,-3.85 -0.936,-1.691 -2.591,-2.663 -1.655,-1.007 -3.742,-1.007 -2.051,0 -3.707,1.007 -1.655,0.972 -2.59,2.663 -0.936,1.691 -0.936,3.85 0,2.123 0.936,3.85 0.935,1.692 2.59,2.663 1.656,0.972 3.707,0.972 z m 21.751,2.52 q -2.914,0 -5.181,-1.26 -2.231,-1.295 -3.526,-3.562 -1.26,-2.267 -1.26,-5.182 0,-2.95 1.188,-5.181 1.223,-2.267 3.346,-3.563 2.123,-1.295 4.894,-1.295 2.735,0 4.75,1.26 2.05,1.223 3.166,3.418 1.116,2.195 1.116,5.001 0,0.576 -0.36,0.936 -0.36,0.324 -0.936,0.324 H 85.254 v -2.303 h 15.581 l -1.547,1.115 q 0.036,-2.087 -0.756,-3.742 -0.791,-1.655 -2.267,-2.59 -1.44,-0.936 -3.454,-0.936 -2.051,0 -3.598,0.971 -1.548,0.972 -2.411,2.699 -0.828,1.691 -0.828,3.886 0,2.195 0.936,3.886 0.971,1.692 2.626,2.663 1.656,0.972 3.815,0.972 1.295,0 2.59,-0.432 1.332,-0.468 2.123,-1.152 0.396,-0.323 0.9,-0.323 0.504,-0.036 0.864,0.252 0.467,0.431 0.467,0.935 0.036,0.504 -0.395,0.864 -1.188,1.007 -3.023,1.69 -1.835,0.649 -3.526,0.649 z"
           style="-inkscape-font-specification:Comfortaa;fill:#ffffff;fill-opacity:1;stroke:#ffffff;stroke-opacity:0.999995"
           id="path50" />
      </g>
    </g>
  </g>
</svg>
