<?xml version="1.0" encoding="UTF-8" standalone="no"?>
<!-- Created with Inkscape (http://www.inkscape.org/) -->

<svg
   xmlns:dc="http://purl.org/dc/elements/1.1/"
   xmlns:cc="http://creativecommons.org/ns#"
   xmlns:rdf="http://www.w3.org/1999/02/22-rdf-syntax-ns#"
   xmlns:svg="http://www.w3.org/2000/svg"
   xmlns="http://www.w3.org/2000/svg"
   xmlns:sodipodi="http://sodipodi.sourceforge.net/DTD/sodipodi-0.dtd"
   xmlns:inkscape="http://www.inkscape.org/namespaces/inkscape"
   width="210mm"
   height="297mm"
   viewBox="0 0 744.09448819 1052.3622047"
   id="svg4323"
   version="1.1"
   inkscape:version="0.91 r13725"
   sodipodi:docname="rr2.svg"
   inkscape:export-filename="C:\Users\fraipoha\Pictures\tekening.png"
   inkscape:export-xdpi="269.31"
   inkscape:export-ydpi="269.31">
  <defs
     id="defs4325" />
  <sodipodi:namedview
     id="base"
     pagecolor="#ffffff"
     bordercolor="#666666"
     borderopacity="1.0"
     inkscape:pageopacity="0.0"
     inkscape:pageshadow="2"
     inkscape:zoom="1.057523"
     inkscape:cx="367.74968"
     inkscape:cy="513.31398"
     inkscape:document-units="px"
     inkscape:current-layer="layer1"
     showgrid="false"
     inkscape:window-width="1536"
     inkscape:window-height="803"
     inkscape:window-x="-8"
     inkscape:window-y="-8"
     inkscape:window-maximized="1" />
  <metadata
     id="metadata4328">
    <rdf:RDF>
      <cc:Work
         rdf:about="">
        <dc:format>image/svg+xml</dc:format>
        <dc:type
           rdf:resource="http://purl.org/dc/dcmitype/StillImage" />
        <dc:title></dc:title>
      </cc:Work>
    </rdf:RDF>
  </metadata>
  <g
     inkscape:label="Laag 1"
     inkscape:groupmode="layer"
     id="layer1">
    <path
       style="fill:#000000;fill-opacity:1;stroke:#000000;stroke-width:3.67915106;stroke-miterlimit:4;stroke-dasharray:none;stroke-opacity:1"
       d="m 427.07532,322.83198 a 191.31586,191.31586 0 0 0 -124.93359,46.55664 l 0,-46.54687 -74.27149,0 0,382.61328 74.27149,0 0,-194.46875 a 125.09114,125.09114 0 0 1 124.93359,-121.92969 125.09114,125.09114 0 0 1 103.04883,54.41406 l 0,-90.49414 A 191.31586,191.31586 0 0 0 427.07532,322.83198 Z"
       id="path4266"
       inkscape:connector-curvature="0" />
    <path
       style="fill:#ff0000;fill-opacity:1;stroke:#ff0000;stroke-width:7.35830212;stroke-miterlimit:4;stroke-dasharray:none;stroke-opacity:1"
       d="m 372.8647,514.14352 a 51.508116,51.508116 0 0 0 51.5081,51.50811 51.508116,51.508116 0 0 0 51.5081,-51.50811 51.508116,51.508116 0 0 0 -51.5081,-51.50812 51.508116,51.508116 0 0 0 -51.5081,51.50812 z"
       id="path4258"
       inkscape:connector-curvature="0"
       inkscape:export-filename="C:\Users\fraipoha\Desktop\rect4274-7.png"
       inkscape:export-xdpi="90"
       inkscape:export-ydpi="90" />
    <rect
       style="fill:none;fill-opacity:1;stroke:none;stroke-width:2.5;stroke-miterlimit:4;stroke-dasharray:none;stroke-opacity:1"
       id="rect4903"
       width="296.98486"
       height="246.47722"
       x="321.22852"
       y="504.85953" />
    <path
       inkscape:connector-curvature="0"
       style="fill:#000000;fill-opacity:1;stroke:#000000;stroke-width:3.67915106;stroke-miterlimit:4;stroke-dasharray:none;stroke-opacity:1"
       d="m 421.67027,705.45504 a 191.31586,191.31586 0 0 0 124.9336,-46.55665 l 0,46.54688 74.27149,0 0,-382.61329 -74.27149,0 0,194.46875 A 125.09114,125.09114 0 0 1 421.67027,639.23042 125.09114,125.09114 0 0 1 318.62144,584.81636 l 0,90.49414 a 191.31586,191.31586 0 0 0 103.04883,30.14454 z"
       id="path4266-5" />
  </g>
</svg>
