<svg
  xmlns="http://www.w3.org/2000/svg"
  viewBox="0 0 714.87585 714.87585"
  width="180"
  height="180"
  fill="none"
>
  <g transform="translate(0 31.75084)">
    <g transform="translate(-12.52903,-57.093716)">
      <path
        fill="#000"
        stroke="#000"
        stroke-width="6.41339"
        d="M374.83876 60.300412A344.88128 322.4877 0 0 0 149.62347 138.77766V60.316872H15.735726V705.26118H149.62347V377.45889A225.4993 210.85734 0 0 1 374.83876 171.93058 225.4993 210.85734 0 0 1 560.60283 263.65254V111.11292A344.88128 322.4877 0 0 0 374.83876 60.300412Z"
      />
      <path
        fill="#ff3b1f"
        stroke="#ff3b1f"
        stroke-width="12.8268"
        d="M277.11435 382.78083A92.852653 86.823612 0 0 0 369.96698 469.60443 92.852653 86.823612 0 0 0 462.8196 382.78083 92.852653 86.823612 0 0 0 369.96698 295.95721 92.852653 86.823612 0 0 0 277.11435 382.78083Z"
      />
      <path
        fill="#000"
        stroke="#000"
        stroke-width="6.41339"
        d="M365.09518 705.26118A344.88128 322.4877 0 0 0 590.31049 626.78398V705.24478H724.19819V60.300412H590.31049V388.10272A225.4993 210.85734 0 0 1 365.09518 593.63103 225.4993 210.85734 0 0 1 179.33111 501.90907V654.44868A344.88128 322.4877 0 0 0 365.09518 705.26118Z"
      />
    </g>
  </g>
</svg>
